<svg width="147" height="66" viewBox="0 0 147 66" fill="none" xmlns="http://www.w3.org/2000/svg">
<path d="M11.4984 53.8608C12.6525 55.0149 16.0853 54.8518 21.019 52.6589C26.6977 50.1351 33.2733 45.3998 39.3366 39.3366C45.4004 33.2727 50.1357 26.6977 52.6592 21.0187C54.8518 16.0847 55.0149 12.6525 53.8608 11.4984C52.7065 10.344 49.2739 10.5068 44.3402 12.6997C38.6615 15.2236 32.0862 19.9591 26.0226 26.0226C19.9594 32.0859 15.2239 38.6612 12.7 44.3399C10.5074 49.2739 10.344 52.7065 11.4984 53.8608ZM9.07766 56.2815C4.06407 51.2679 10.567 36.6369 23.6019 23.6019C36.6372 10.5667 51.2679 4.06407 56.2815 9.07767C61.2948 14.091 54.7925 28.722 41.7573 41.7573C28.7223 54.7922 14.091 61.2948 9.07766 56.2815Z" fill="#FF0000"/>
<path d="M46.6262 40.2524C46.4206 40.458 46.1122 40.6563 45.7009 40.8473C45.3043 41.0382 44.8563 41.2145 44.3569 41.376C43.8575 41.5376 43.3435 41.6625 42.8147 41.7506C42.2859 41.8534 41.7865 41.9048 41.3165 41.9048C40.024 41.9048 38.8563 41.7065 37.8134 41.3099C36.7853 40.9134 35.8966 40.3699 35.1475 39.6796C34.4131 38.9746 33.8477 38.1447 33.4511 37.19C33.0692 36.2352 32.8783 35.1997 32.8783 34.0834C32.8783 32.6881 33.0986 31.4616 33.5392 30.4041C33.9799 29.3319 34.5821 28.4359 35.3458 27.7162C36.1096 26.9818 36.9836 26.431 37.9676 26.0638C38.9664 25.6966 40.0166 25.513 41.1182 25.513C42.0876 25.513 42.9836 25.6231 43.8061 25.8435C44.6434 26.0638 45.3557 26.3429 45.9432 26.6807L45.106 29.0601C44.827 28.8986 44.4671 28.7444 44.0265 28.5975C43.5858 28.4359 43.1378 28.3111 42.6825 28.2229C42.2419 28.1348 41.8306 28.0907 41.4487 28.0907C40.5234 28.0907 39.6935 28.2229 38.9591 28.4873C38.2394 28.737 37.6225 29.1116 37.1084 29.6109C36.5943 30.1103 36.1977 30.7199 35.9187 31.4396C35.6543 32.1446 35.5221 32.9525 35.5221 33.8631C35.5221 34.6857 35.6616 35.4347 35.9407 36.1104C36.2345 36.786 36.6384 37.3662 37.1525 37.8509C37.6812 38.3356 38.2981 38.7102 39.0032 38.9746C39.7229 39.2243 40.516 39.3491 41.3826 39.3491C41.882 39.3491 42.3667 39.305 42.8367 39.2169C43.3067 39.1288 43.7033 38.9892 44.0265 38.7983V36.1324H41.0301V33.6648H46.6262V40.2524Z" fill="white"/>
<path d="M49.2449 36.9696C49.2449 36.0296 49.4653 35.185 49.9059 34.436C50.3465 33.6722 50.9634 33.0773 51.7566 32.6514C52.5644 32.2107 53.4751 31.9904 54.4886 31.9904C55.5314 31.9904 56.4347 32.2107 57.1985 32.6514C57.977 33.0773 58.5792 33.6722 59.0051 34.436C59.4311 35.185 59.6441 36.0296 59.6441 36.9696C59.6441 37.9097 59.4311 38.7616 59.0051 39.5254C58.5792 40.2744 57.977 40.8693 57.1985 41.3099C56.4347 41.7506 55.5241 41.9709 54.4665 41.9709C53.4678 41.9709 52.5718 41.7726 51.7786 41.376C50.9855 40.9648 50.3612 40.3846 49.9059 39.6355C49.4653 38.8864 49.2449 37.9978 49.2449 36.9696ZM51.7346 36.9917C51.7346 37.5351 51.8521 38.0345 52.0871 38.4899C52.3221 38.9305 52.6452 39.283 53.0565 39.5474C53.4678 39.8118 53.9231 39.944 54.4225 39.944C54.9659 39.944 55.4359 39.8118 55.8325 39.5474C56.2438 39.283 56.5596 38.9305 56.7799 38.4899C57.0149 38.0345 57.1324 37.5351 57.1324 36.9917C57.1324 36.4335 57.0149 35.9341 56.7799 35.4935C56.5596 35.0382 56.2438 34.6783 55.8325 34.4139C55.4359 34.1495 54.9659 34.0173 54.4225 34.0173C53.9084 34.0173 53.4457 34.1569 53.0345 34.436C52.6379 34.7003 52.3221 35.0529 52.0871 35.4935C51.8521 35.9341 51.7346 36.4335 51.7346 36.9917Z" fill="white"/>
<path d="M66.1587 41.9709C65.2774 41.9709 64.4769 41.7873 63.7572 41.4201C63.0521 41.0529 62.494 40.5095 62.0827 39.7897C61.6715 39.0553 61.4658 38.152 61.4658 37.0798C61.4658 36.0223 61.6788 35.119 62.1048 34.3699C62.5454 33.6061 63.1182 33.0186 63.8233 32.6073C64.543 32.196 65.3214 31.9904 66.1587 31.9904C67.0546 31.9904 67.7743 32.1667 68.3178 32.5192C68.8759 32.8717 69.3092 33.2903 69.6177 33.775L69.4855 34.1275L69.7278 32.409H71.9971V41.7286H69.5296V39.4593L69.7719 40.0541C69.7132 40.1423 69.5957 40.2891 69.4194 40.4948C69.2431 40.6857 69.0008 40.8987 68.6923 41.1337C68.3839 41.3687 68.0167 41.567 67.5907 41.7286C67.1795 41.8901 66.7021 41.9709 66.1587 41.9709ZM66.8416 39.944C67.2823 39.944 67.6789 39.8632 68.0314 39.7016C68.3986 39.54 68.707 39.3124 68.9567 39.0186C69.2211 38.7249 69.4121 38.3723 69.5296 37.9611V35.9341C69.4121 35.5522 69.2211 35.2218 68.9567 34.9427C68.6923 34.6489 68.3692 34.4213 67.9873 34.2597C67.6201 34.0981 67.2089 34.0173 66.7535 34.0173C66.2541 34.0173 65.7915 34.1422 65.3655 34.3919C64.9395 34.6416 64.5944 34.9868 64.33 35.4274C64.0803 35.868 63.9555 36.3748 63.9555 36.9476C63.9555 37.5058 64.0876 38.0125 64.352 38.4678C64.6164 38.9231 64.9689 39.283 65.4096 39.5474C65.8502 39.8118 66.3276 39.944 66.8416 39.944Z" fill="white"/>
<path d="M75.4045 24.5436H77.8721V41.7286H75.4045V24.5436Z" fill="white"/>
<path d="M81.2568 41.7286V24.5436H83.7244V41.7286H81.2568ZM86.0377 35.4715L90.2899 41.7286H87.4258L84.4074 36.8815L86.0377 35.4715ZM82.9753 38.9305L82.7329 36.551L88.3952 32.1887L89.8933 33.5106L82.9753 38.9305Z" fill="white"/>
<path d="M96.8093 41.9709C95.7077 41.9709 94.7677 41.7579 93.9892 41.332C93.2108 40.906 92.6159 40.3185 92.2046 39.5694C91.7934 38.8056 91.5877 37.9464 91.5877 36.9917C91.5877 36.0516 91.8228 35.2071 92.2928 34.458C92.7628 33.7089 93.3944 33.114 94.1875 32.6734C94.9954 32.2181 95.884 31.9904 96.8534 31.9904C98.1313 31.9904 99.1814 32.3649 100.004 33.114C100.841 33.8484 101.399 34.8913 101.678 36.2426L94.1655 38.7763L93.5927 37.3882L99.4532 35.2952L98.9464 35.5816C98.7849 35.141 98.5205 34.7591 98.1533 34.436C97.8008 34.1128 97.3014 33.9513 96.6551 33.9513C96.141 33.9513 95.6857 34.0761 95.2891 34.3258C94.8926 34.5608 94.5768 34.8986 94.3418 35.3393C94.1214 35.7652 94.0113 36.272 94.0113 36.8595C94.0113 37.4617 94.1361 37.9905 94.3858 38.4458C94.6355 38.9011 94.9733 39.2536 95.3993 39.5033C95.8252 39.7383 96.3099 39.8558 96.8534 39.8558C97.2353 39.8558 97.6025 39.7897 97.955 39.6575C98.3075 39.5254 98.638 39.3491 98.9464 39.1288L100.07 40.9574C99.5854 41.2659 99.0493 41.5156 98.4617 41.7065C97.8889 41.8828 97.3381 41.9709 96.8093 41.9709Z" fill="white"/>
<path d="M108.557 41.9709C107.455 41.9709 106.515 41.7579 105.737 41.332C104.958 40.906 104.363 40.3185 103.952 39.5694C103.541 38.8056 103.335 37.9464 103.335 36.9917C103.335 36.0516 103.57 35.2071 104.04 34.458C104.51 33.7089 105.142 33.114 105.935 32.6734C106.743 32.2181 107.632 31.9904 108.601 31.9904C109.879 31.9904 110.929 32.3649 111.752 33.114C112.589 33.8484 113.147 34.8913 113.426 36.2426L105.913 38.7763L105.34 37.3882L111.201 35.2952L110.694 35.5816C110.532 35.141 110.268 34.7591 109.901 34.436C109.548 34.1128 109.049 33.9513 108.403 33.9513C107.889 33.9513 107.433 34.0761 107.037 34.3258C106.64 34.5608 106.324 34.8986 106.089 35.3393C105.869 35.7652 105.759 36.272 105.759 36.8595C105.759 37.4617 105.884 37.9905 106.133 38.4458C106.383 38.9011 106.721 39.2536 107.147 39.5033C107.573 39.7383 108.057 39.8558 108.601 39.8558C108.983 39.8558 109.35 39.7897 109.703 39.6575C110.055 39.5254 110.386 39.3491 110.694 39.1288L111.818 40.9574C111.333 41.2659 110.797 41.5156 110.209 41.7065C109.636 41.8828 109.086 41.9709 108.557 41.9709Z" fill="white"/>
<path d="M121.516 41.9709C120.87 41.9709 120.246 41.8314 119.643 41.5523C119.041 41.2732 118.557 40.8913 118.189 40.4066L118.322 39.6575V46.2011H115.854V32.2328H117.991L118.322 34.3919L118.101 33.7309C118.557 33.2315 119.107 32.8203 119.754 32.4971C120.415 32.1593 121.156 31.9904 121.979 31.9904C122.86 31.9904 123.646 32.196 124.336 32.6073C125.027 33.0186 125.57 33.6061 125.967 34.3699C126.378 35.119 126.584 36.0076 126.584 37.0357C126.584 38.0639 126.363 38.9452 125.923 39.6796C125.482 40.414 124.88 40.9795 124.116 41.376C123.352 41.7726 122.486 41.9709 121.516 41.9709ZM121.031 40.0101C121.575 40.0101 122.074 39.8852 122.53 39.6355C123 39.3858 123.374 39.0407 123.653 38.6C123.932 38.1447 124.072 37.6379 124.072 37.0798C124.072 36.4923 123.94 35.9782 123.675 35.5376C123.426 35.0822 123.08 34.7297 122.64 34.48C122.214 34.2156 121.737 34.0834 121.208 34.0834C120.723 34.0834 120.29 34.1642 119.908 34.3258C119.526 34.4874 119.203 34.7224 118.938 35.0308C118.674 35.3246 118.468 35.6771 118.322 36.0884V37.9611C118.424 38.3577 118.601 38.7102 118.85 39.0186C119.1 39.3271 119.416 39.5694 119.798 39.7457C120.18 39.9219 120.591 40.0101 121.031 40.0101Z" fill="white"/>
<path d="M133.644 41.9709C132.543 41.9709 131.602 41.7579 130.824 41.332C130.046 40.906 129.451 40.3185 129.039 39.5694C128.628 38.8056 128.423 37.9464 128.423 36.9917C128.423 36.0516 128.658 35.2071 129.128 34.458C129.598 33.7089 130.229 33.114 131.022 32.6734C131.83 32.2181 132.719 31.9904 133.688 31.9904C134.966 31.9904 136.016 32.3649 136.839 33.114C137.676 33.8484 138.234 34.8913 138.513 36.2426L131 38.7763L130.427 37.3882L136.288 35.2952L135.781 35.5816C135.62 35.141 135.355 34.7591 134.988 34.436C134.636 34.1128 134.136 33.9513 133.49 33.9513C132.976 33.9513 132.52 34.0761 132.124 34.3258C131.727 34.5608 131.412 34.8986 131.177 35.3393C130.956 35.7652 130.846 36.272 130.846 36.8595C130.846 37.4617 130.971 37.9905 131.221 38.4458C131.47 38.9011 131.808 39.2536 132.234 39.5033C132.66 39.7383 133.145 39.8558 133.688 39.8558C134.07 39.8558 134.437 39.7897 134.79 39.6575C135.142 39.5254 135.473 39.3491 135.781 39.1288L136.905 40.9574C136.42 41.2659 135.884 41.5156 135.297 41.7065C134.724 41.8828 134.173 41.9709 133.644 41.9709Z" fill="white"/>
<path d="M143.166 32.409L143.387 35.0529L143.299 34.6783C143.563 34.1202 143.923 33.6428 144.378 33.2462C144.848 32.835 145.326 32.5265 145.81 32.3209C146.295 32.1006 146.692 31.9904 147 31.9904L146.89 34.458C146.185 34.3992 145.568 34.5314 145.039 34.8546C144.525 35.163 144.121 35.5743 143.827 36.0884C143.548 36.6024 143.409 37.1459 143.409 37.7187V41.7286H140.941V32.409H143.166Z" fill="white"/>
</svg>
