<svg
  width="800"
  height="356"
  viewBox="0 0 800 356"
  preserveAspectRatio="x200Y200 meet"
  fill="none"
  xmlns="http://www.w3.org/2000/svg"
>
  <path
    d="M62.5762 293.12C68.8569 299.401 87.5392 298.513 114.389 286.579C145.294 272.844 181.079 247.074 214.077 214.077C247.077 181.076 272.847 145.294 286.581 114.388C298.513 87.5359 299.401 68.8569 293.12 62.5762C286.838 56.2939 268.157 57.1799 241.307 69.1138C210.403 82.8493 174.619 108.621 141.62 141.62C108.622 174.617 82.8509 210.401 69.1155 241.305C57.1832 268.157 56.2939 286.838 62.5762 293.12V293.12ZM49.4023 306.294C22.1174 279.009 57.5076 199.384 128.446 128.446C199.386 57.5059 279.009 22.1174 306.294 49.4023C333.577 76.6855 298.19 156.31 227.25 227.25C156.312 298.189 76.6855 333.577 49.4023 306.294Z"
    fill="#FF0000"
  />
  <path
    d="M253.748 219.061C252.629 220.18 250.951 221.259 248.712 222.298C246.554 223.337 244.116 224.297 241.398 225.176C238.681 226.055 235.883 226.735 233.005 227.214C230.127 227.774 227.41 228.053 224.852 228.053C217.818 228.053 211.463 226.974 205.787 224.816C200.192 222.658 195.356 219.7 191.279 215.943C187.282 212.106 184.205 207.59 182.047 202.394C179.968 197.199 178.929 191.563 178.929 185.488C178.929 177.894 180.128 171.22 182.526 165.465C184.924 159.629 188.202 154.753 192.358 150.836C196.515 146.84 201.271 143.842 206.627 141.844C212.062 139.845 217.778 138.846 223.773 138.846C229.048 138.846 233.924 139.446 238.401 140.645C242.957 141.844 246.834 143.363 250.031 145.201L245.475 158.15C243.956 157.271 241.998 156.432 239.6 155.633C237.202 154.753 234.764 154.074 232.286 153.594C229.888 153.115 227.65 152.875 225.571 152.875C220.535 152.875 216.019 153.594 212.022 155.033C208.105 156.392 204.748 158.43 201.95 161.148C199.153 163.866 196.995 167.183 195.476 171.1C194.037 174.937 193.318 179.333 193.318 184.289C193.318 188.766 194.077 192.842 195.596 196.519C197.194 200.196 199.393 203.354 202.19 205.991C205.068 208.629 208.425 210.668 212.262 212.106C216.179 213.465 220.495 214.145 225.212 214.145C227.929 214.145 230.567 213.905 233.125 213.425C235.683 212.946 237.841 212.186 239.6 211.147V196.639H223.293V183.21H253.748V219.061Z"
    fill="white"
  />
  <path
    d="M268 201.195C268 196.08 269.199 191.483 271.597 187.407C273.995 183.25 277.352 180.013 281.669 177.695C286.065 175.297 291.021 174.097 296.536 174.097C302.212 174.097 307.128 175.297 311.284 177.695C315.521 180.013 318.798 183.25 321.116 187.407C323.434 191.483 324.594 196.08 324.594 201.195C324.594 206.311 323.434 210.947 321.116 215.104C318.798 219.181 315.521 222.418 311.284 224.816C307.128 227.214 302.172 228.413 296.417 228.413C290.981 228.413 286.105 227.334 281.788 225.176C277.472 222.938 274.075 219.78 271.597 215.704C269.199 211.627 268 206.791 268 201.195ZM281.549 201.315C281.549 204.273 282.188 206.991 283.467 209.469C284.746 211.867 286.505 213.785 288.743 215.224C290.981 216.663 293.459 217.382 296.177 217.382C299.134 217.382 301.692 216.663 303.85 215.224C306.089 213.785 307.807 211.867 309.006 209.469C310.285 206.991 310.925 204.273 310.925 201.315C310.925 198.278 310.285 195.56 309.006 193.162C307.807 190.684 306.089 188.726 303.85 187.287C301.692 185.848 299.134 185.128 296.177 185.128C293.379 185.128 290.861 185.888 288.623 187.407C286.465 188.845 284.746 190.764 283.467 193.162C282.188 195.56 281.549 198.278 281.549 201.315Z"
    fill="white"
  />
  <path
    d="M360.047 228.413C355.251 228.413 350.895 227.414 346.978 225.416C343.141 223.417 340.103 220.46 337.865 216.543C335.627 212.546 334.508 207.63 334.508 201.795C334.508 196.04 335.667 191.124 337.985 187.047C340.383 182.89 343.501 179.693 347.337 177.455C351.254 175.217 355.491 174.097 360.047 174.097C364.923 174.097 368.84 175.057 371.798 176.975C374.835 178.894 377.193 181.172 378.872 183.81L378.152 185.728L379.471 176.376H391.821V227.094H378.392V214.744L379.711 217.982C379.391 218.461 378.752 219.261 377.793 220.38C376.833 221.419 375.515 222.578 373.836 223.857C372.157 225.136 370.159 226.215 367.841 227.094C365.603 227.974 363.005 228.413 360.047 228.413ZM363.764 217.382C366.162 217.382 368.32 216.943 370.239 216.063C372.237 215.184 373.916 213.945 375.275 212.346C376.714 210.748 377.753 208.829 378.392 206.591V195.56C377.753 193.482 376.714 191.683 375.275 190.164C373.836 188.566 372.077 187.327 369.999 186.447C368.001 185.568 365.762 185.128 363.284 185.128C360.567 185.128 358.049 185.808 355.731 187.167C353.413 188.526 351.534 190.404 350.095 192.802C348.736 195.2 348.057 197.958 348.057 201.075C348.057 204.113 348.776 206.871 350.215 209.349C351.654 211.827 353.572 213.785 355.97 215.224C358.368 216.663 360.966 217.382 363.764 217.382Z"
    fill="white"
  />
  <path d="M410.365 133.571H423.794V227.094H410.365V133.571Z" fill="white" />
  <path
    d="M442.214 227.094V133.571H455.643V227.094H442.214ZM468.233 193.042L491.374 227.094H475.786L459.36 200.716L468.233 193.042ZM451.566 211.867L450.247 198.917L481.062 175.177L489.215 182.371L451.566 211.867Z"
    fill="white"
  />
  <path
    d="M526.854 228.413C520.858 228.413 515.743 227.254 511.506 224.936C507.27 222.618 504.032 219.421 501.794 215.344C499.556 211.187 498.437 206.511 498.437 201.315C498.437 196.199 499.716 191.603 502.274 187.527C504.832 183.45 508.269 180.213 512.585 177.814C516.982 175.336 521.818 174.097 527.093 174.097C534.048 174.097 539.763 176.136 544.239 180.213C548.796 184.209 551.833 189.885 553.352 197.239L512.465 211.027L509.348 203.474L541.242 192.083L538.484 193.642C537.605 191.244 536.166 189.165 534.168 187.407C532.249 185.648 529.531 184.769 526.014 184.769C523.217 184.769 520.739 185.448 518.58 186.807C516.422 188.086 514.703 189.925 513.425 192.323C512.225 194.641 511.626 197.398 511.626 200.596C511.626 203.873 512.305 206.751 513.664 209.229C515.023 211.707 516.862 213.625 519.18 214.984C521.498 216.263 524.136 216.903 527.093 216.903C529.172 216.903 531.17 216.543 533.088 215.823C535.007 215.104 536.805 214.145 538.484 212.946L544.599 222.898C541.961 224.576 539.044 225.935 535.846 226.974C532.729 227.934 529.731 228.413 526.854 228.413Z"
    fill="white"
  />
  <path
    d="M590.786 228.413C584.791 228.413 579.675 227.254 575.438 224.936C571.202 222.618 567.964 219.421 565.726 215.344C563.488 211.187 562.369 206.511 562.369 201.315C562.369 196.199 563.648 191.603 566.206 187.527C568.764 183.45 572.201 180.213 576.517 177.814C580.914 175.336 585.75 174.097 591.026 174.097C597.98 174.097 603.695 176.136 608.172 180.213C612.728 184.209 615.765 189.885 617.284 197.239L576.397 211.027L573.28 203.474L605.174 192.083L602.416 193.642C601.537 191.244 600.098 189.165 598.1 187.407C596.181 185.648 593.464 184.769 589.946 184.769C587.149 184.769 584.671 185.448 582.513 186.807C580.354 188.086 578.636 189.925 577.357 192.323C576.158 194.641 575.558 197.398 575.558 200.596C575.558 203.873 576.238 206.751 577.597 209.229C578.955 211.707 580.794 213.625 583.112 214.984C585.43 216.263 588.068 216.903 591.026 216.903C593.104 216.903 595.102 216.543 597.021 215.823C598.939 215.104 600.738 214.145 602.416 212.946L608.531 222.898C605.893 224.576 602.976 225.935 599.778 226.974C596.661 227.934 593.663 228.413 590.786 228.413Z"
    fill="white"
  />
  <path
    d="M661.313 228.413C657.795 228.413 654.398 227.654 651.121 226.135C647.844 224.616 645.206 222.538 643.207 219.9L643.927 215.823V251.434H630.498V175.416H642.128L643.927 187.167L642.728 183.57C645.206 180.852 648.203 178.614 651.72 176.855C655.317 175.017 659.354 174.097 663.831 174.097C668.627 174.097 672.903 175.217 676.66 177.455C680.417 179.693 683.375 182.89 685.533 187.047C687.771 191.124 688.89 195.96 688.89 201.555C688.89 207.151 687.691 211.947 685.293 215.943C682.895 219.94 679.618 223.018 675.461 225.176C671.304 227.334 666.588 228.413 661.313 228.413ZM658.675 217.742C661.632 217.742 664.35 217.062 666.828 215.704C669.386 214.345 671.424 212.466 672.943 210.068C674.462 207.59 675.221 204.832 675.221 201.795C675.221 198.598 674.502 195.8 673.063 193.402C671.704 190.924 669.826 189.005 667.428 187.646C665.109 186.208 662.512 185.488 659.634 185.488C656.996 185.488 654.638 185.928 652.56 186.807C650.481 187.686 648.723 188.965 647.284 190.644C645.845 192.243 644.726 194.161 643.927 196.399V206.591C644.486 208.749 645.446 210.668 646.804 212.346C648.163 214.025 649.882 215.344 651.96 216.303C654.038 217.262 656.277 217.742 658.675 217.742Z"
    fill="white"
  />
  <path
    d="M727.315 228.413C721.32 228.413 716.204 227.254 711.968 224.936C707.731 222.618 704.494 219.421 702.255 215.344C700.017 211.187 698.898 206.511 698.898 201.315C698.898 196.199 700.177 191.603 702.735 187.527C705.293 183.45 708.73 180.213 713.047 177.814C717.443 175.336 722.279 174.097 727.555 174.097C734.509 174.097 740.224 176.136 744.701 180.213C749.257 184.209 752.295 189.885 753.813 197.239L712.927 211.027L709.809 203.474L741.703 192.083L738.945 193.642C738.066 191.244 736.627 189.165 734.629 187.407C732.711 185.648 729.993 184.769 726.476 184.769C723.678 184.769 721.2 185.448 719.042 186.807C716.884 188.086 715.165 189.925 713.886 192.323C712.687 194.641 712.087 197.398 712.087 200.596C712.087 203.873 712.767 206.751 714.126 209.229C715.485 211.707 717.323 213.625 719.641 214.984C721.959 216.263 724.597 216.903 727.555 216.903C729.633 216.903 731.631 216.543 733.55 215.823C735.468 215.104 737.267 214.145 738.945 212.946L745.061 222.898C742.423 224.576 739.505 225.935 736.308 226.974C733.19 227.934 730.193 228.413 727.315 228.413Z"
    fill="white"
  />
  <path
    d="M779.137 176.376L780.336 190.764L779.856 188.726C781.295 185.688 783.254 183.09 785.732 180.932C788.29 178.694 790.887 177.015 793.525 175.896C796.163 174.697 798.321 174.097 800 174.097L799.4 187.527C795.564 187.207 792.206 187.926 789.329 189.685C786.531 191.363 784.333 193.602 782.734 196.399C781.215 199.197 780.456 202.155 780.456 205.272V227.094H767.027V176.376H779.137Z"
    fill="white"
  />
</svg>
