<svg width="427" height="427" viewBox="0 0 427 427" fill="none" xmlns="http://www.w3.org/2000/svg">
<path d="M75.5896 351.446C83.1037 358.96 105.455 357.898 137.578 343.619C174.552 327.185 217.365 296.352 256.843 256.87C296.325 217.385 327.156 174.572 343.587 137.593C357.862 105.465 358.924 83.1159 351.41 75.6011C343.894 68.0843 321.545 69.1444 289.421 83.4233C252.448 99.8577 209.636 130.693 170.157 170.176C130.679 209.658 99.8461 252.473 83.4131 289.45C69.1374 321.578 68.0735 343.929 75.5896 351.446V351.446ZM59.8284 367.208C27.1851 334.562 69.5255 239.291 154.395 154.414C239.267 69.5345 334.528 27.1923 367.171 59.8385C399.813 92.4827 357.476 187.754 272.604 272.633C187.734 357.51 92.4698 399.852 59.8284 367.208Z" fill="#FF0000"/>
</svg>
